<svg width="20" height="20" viewBox="0 0 20 20" fill="none" xmlns="http://www.w3.org/2000/svg">
<path d="M4.16697 15.8346H5.21824L13.7487 7.30414L12.6975 6.25286L4.16697 14.7833V15.8346ZM2.91699 17.0846V14.2641L13.909 3.27695C14.035 3.16249 14.1741 3.07405 14.3264 3.01161C14.4787 2.94918 14.6383 2.91797 14.8054 2.91797C14.9725 2.91797 15.1344 2.94762 15.291 3.00693C15.4476 3.06622 15.5863 3.1605 15.707 3.28976L16.7246 4.3202C16.8539 4.44092 16.9461 4.57984 17.0011 4.73695C17.0561 4.89405 17.0836 5.05114 17.0836 5.20824C17.0836 5.37581 17.055 5.53573 16.9978 5.68799C16.9405 5.84027 16.8495 5.97941 16.7246 6.10543L5.73747 17.0846H2.91699ZM13.2139 6.78772L12.6975 6.25286L13.7487 7.30414L13.2139 6.78772Z" fill="black"/>
</svg>
