<svg width="24" height="24" viewBox="0 0 24 24" fill="none" xmlns="http://www.w3.org/2000/svg">
<path d="M13.4417 19.6891C15.1249 18.1726 16.5164 16.8644 17.6162 15.7646C18.7159 14.6649 19.5904 13.6778 20.24 12.8035C20.8895 11.9291 21.3429 11.1261 21.6007 10.3943C21.8586 9.66227 21.9875 8.91367 21.9875 8.14844C21.9875 6.58488 21.4637 5.27979 20.4162 4.23228C19.3686 3.18476 18.0636 2.66094 16.5 2.66094C15.6352 2.66094 14.812 2.84387 14.0303 3.20976C13.2486 3.57566 12.575 4.09122 12.0095 4.75653L12 4.76774L11.9905 4.75653C11.425 4.09122 10.7514 3.57566 9.9697 3.20976C9.18803 2.84387 8.36484 2.66094 7.5 2.66094C5.93645 2.66094 4.63136 3.18476 3.58384 4.23228C2.53632 5.27979 2.0125 6.58488 2.0125 8.14844C2.0125 8.91367 2.14142 9.66227 2.39929 10.3943C2.65708 11.1261 3.11051 11.9291 3.76003 12.8035C4.40955 13.6778 5.2841 14.6649 6.38384 15.7646C7.48363 16.8644 8.87512 18.1726 10.5583 19.6891H13.4417ZM13.4417 19.6891L13.4416 19.6892L12 20.9816L10.5584 19.6892L13.4417 19.6891Z" fill="#263358" stroke="#263358" stroke-width="0.025"/>
</svg>
