<svg width="24" height="24" viewBox="0 0 24 24" fill="none" xmlns="http://www.w3.org/2000/svg">
<path d="M10.9875 17V17.0125H11H17H17.0125V17V15V14.9875H17H11H10.9875V15V17ZM10.9875 13V13.0125H11H17H17.0125V13V11V10.9875H17H11H10.9875V11V13ZM10.9875 9V9.0125H11H17H17.0125V9V7V6.9875H17H11H10.9875V7V9ZM8 17.0125C8.28648 17.0125 8.52721 16.9155 8.72134 16.7213C8.91547 16.5272 9.0125 16.2865 9.0125 16C9.0125 15.7135 8.91547 15.4728 8.72134 15.2787C8.52721 15.0845 8.28648 14.9875 8 14.9875C7.71352 14.9875 7.47279 15.0845 7.27866 15.2787C7.08453 15.4728 6.9875 15.7135 6.9875 16C6.9875 16.2865 7.08453 16.5272 7.27866 16.7213C7.47279 16.9155 7.71352 17.0125 8 17.0125ZM8 13.0125C8.28648 13.0125 8.52721 12.9155 8.72134 12.7213C8.91547 12.5272 9.0125 12.2865 9.0125 12C9.0125 11.7135 8.91547 11.4728 8.72134 11.2787C8.52721 11.0845 8.28648 10.9875 8 10.9875C7.71352 10.9875 7.47279 11.0845 7.27866 11.2787C7.08453 11.4728 6.9875 11.7135 6.9875 12C6.9875 12.2865 7.08453 12.5272 7.27866 12.7213C7.47279 12.9155 7.71352 13.0125 8 13.0125ZM8 9.0125C8.28648 9.0125 8.52721 8.91547 8.72134 8.72134C8.91547 8.52721 9.0125 8.28648 9.0125 8C9.0125 7.71352 8.91547 7.47279 8.72134 7.27866C8.52721 7.08453 8.28648 6.9875 8 6.9875C7.71352 6.9875 7.47279 7.08453 7.27866 7.27866C7.08453 7.47279 6.9875 7.71352 6.9875 8C6.9875 8.28648 7.08453 8.52721 7.27866 8.72134C7.47279 8.91547 7.71352 9.0125 8 9.0125ZM5 20.9875C4.45334 20.9875 3.98568 20.793 3.59634 20.4037C3.207 20.0143 3.0125 19.5467 3.0125 19V5C3.0125 4.45334 3.207 3.98568 3.59634 3.59634C3.98568 3.207 4.45334 3.0125 5 3.0125H19C19.5467 3.0125 20.0143 3.207 20.4037 3.59634C20.793 3.98568 20.9875 4.45334 20.9875 5V19C20.9875 19.5467 20.793 20.0143 20.4037 20.4037C20.0143 20.793 19.5467 20.9875 19 20.9875H5Z" fill="#263358" stroke="#263358" stroke-width="0.025"/>
</svg>
