<svg width="24" height="24" viewBox="0 0 24 24" fill="none" xmlns="http://www.w3.org/2000/svg">
<path d="M4.9875 19V19.0125H5H19H19.0125V19V5V4.9875H19H5H4.9875V5V19ZM8.70366 16.7037C8.51445 16.8929 8.28019 16.9875 8 16.9875C7.71981 16.9875 7.48555 16.8929 7.29634 16.7037C7.10713 16.5145 7.0125 16.2802 7.0125 16C7.0125 15.7198 7.10713 15.4855 7.29634 15.2963C7.48555 15.1071 7.71981 15.0125 8 15.0125C8.28019 15.0125 8.51445 15.1071 8.70366 15.2963C8.89287 15.4855 8.9875 15.7198 8.9875 16C8.9875 16.2802 8.89287 16.5145 8.70366 16.7037ZM8.70366 12.7037C8.51445 12.8929 8.28019 12.9875 8 12.9875C7.71981 12.9875 7.48555 12.8929 7.29634 12.7037C7.10713 12.5145 7.0125 12.2802 7.0125 12C7.0125 11.7198 7.10713 11.4855 7.29634 11.2963C7.48555 11.1071 7.71981 11.0125 8 11.0125C8.28019 11.0125 8.51445 11.1071 8.70366 11.2963C8.89287 11.4855 8.9875 11.7198 8.9875 12C8.9875 12.2802 8.89287 12.5145 8.70366 12.7037ZM8.70366 8.70366C8.51445 8.89287 8.28019 8.9875 8 8.9875C7.71981 8.9875 7.48555 8.89287 7.29634 8.70366C7.10713 8.51445 7.0125 8.28019 7.0125 8C7.0125 7.71981 7.10713 7.48555 7.29634 7.29634C7.48555 7.10713 7.71981 7.0125 8 7.0125C8.28019 7.0125 8.51445 7.10713 8.70366 7.29634C8.89287 7.48555 8.9875 7.71981 8.9875 8C8.9875 8.28019 8.89287 8.51445 8.70366 8.70366ZM16.9875 15.0125V16.9875H11.0125V15.0125H16.9875ZM16.9875 11.0125V12.9875H11.0125V11.0125H16.9875ZM16.9875 7.0125V8.9875H11.0125V7.0125H16.9875ZM5 20.9875C4.45334 20.9875 3.98568 20.793 3.59634 20.4037C3.207 20.0143 3.0125 19.5467 3.0125 19V5C3.0125 4.45334 3.207 3.98568 3.59634 3.59634C3.98568 3.207 4.45334 3.0125 5 3.0125H19C19.5467 3.0125 20.0143 3.207 20.4037 3.59634C20.793 3.98568 20.9875 4.45334 20.9875 5V19C20.9875 19.5467 20.793 20.0143 20.4037 20.4037C20.0143 20.793 19.5467 20.9875 19 20.9875H5Z" fill="#696969" stroke="#696969" stroke-width="0.025"/>
</svg>
