<svg width="24" height="24" viewBox="0 0 24 24" fill="none" xmlns="http://www.w3.org/2000/svg">
<path d="M12 11.6788C11.0408 11.6788 10.2201 11.3375 9.53696 10.6544C8.85387 9.9713 8.5125 9.15052 8.5125 8.19138C8.5125 7.23222 8.85387 6.41144 9.53696 5.72837C10.2201 5.04528 11.0408 4.70391 12 4.70391C12.9591 4.70391 13.7799 5.04528 14.463 5.72837C15.1461 6.41144 15.4875 7.23222 15.4875 8.19138C15.4875 9.15052 15.1461 9.9713 14.463 10.6544C13.7799 11.3375 12.9591 11.6788 12 11.6788ZM4.5125 19.2942V17.0837C4.5125 16.5963 4.64482 16.1451 4.90959 15.7298C5.17438 15.3145 5.52809 14.9952 5.97093 14.7718C6.95861 14.2876 7.95485 13.9245 8.95965 13.6824C9.96447 13.4403 10.9779 13.3193 12 13.3193C13.022 13.3193 14.0355 13.4403 15.0403 13.6824C16.0451 13.9245 17.0413 14.2876 18.029 14.7718C18.4719 14.9952 18.8256 15.3145 19.0904 15.7298C19.3551 16.1451 19.4875 16.5963 19.4875 17.0837V19.2942H4.5125Z" fill="#263358" stroke="#263358" stroke-width="0.025"/>
</svg>
